<?xml version="1.0" standalone="no"?>
<!DOCTYPE svg PUBLIC "-//W3C//DTD SVG 20010904//EN"
 "http://www.w3.org/TR/2001/REC-SVG-20010904/DTD/svg10.dtd">
<svg version="1.0" xmlns="http://www.w3.org/2000/svg"
 width="300.000000pt" height="246.000000pt" viewBox="0 0 300.000000 246.000000"
 preserveAspectRatio="xMidYMid meet">
<metadata>
Created by potrace 1.10, written by Peter Selinger 2001-2011
</metadata>
<g transform="translate(0.000000,246.000000) scale(0.100000,-0.100000)"
fill="#000000" stroke="none">
<path d="M422 2183 c-21 -18 -25 -32 -23 -65 1 -24 45 -51 71 -43 31 10 24 22
-10 17 -25 -4 -31 0 -40 23 -15 40 3 68 41 63 31 -5 40 6 13 16 -23 9 -30 8
-52 -11z"/>
<path d="M520 2135 c0 -37 4 -65 10 -65 6 0 10 28 10 65 0 37 -4 65 -10 65 -6
0 -10 -28 -10 -65z"/>
<path d="M570 2190 c0 -5 5 -10 10 -10 6 0 10 5 10 10 0 6 -4 10 -10 10 -5 0
-10 -4 -10 -10z"/>
<path d="M710 2135 c0 -41 4 -65 11 -65 6 0 9 9 6 20 -7 26 1 25 30 -2 13 -12
26 -18 29 -15 4 4 -5 16 -19 27 l-27 21 28 24 c20 18 23 24 11 25 -9 0 -22 -7
-29 -15 -19 -23 -27 -18 -22 15 3 18 0 30 -7 30 -7 0 -11 -24 -11 -65z"/>
<path d="M1910 2174 c0 -21 -3 -24 -14 -15 -29 24 -65 -16 -51 -58 7 -25 34
-35 51 -20 11 9 14 9 14 0 0 -7 5 -9 10 -6 6 3 10 33 10 66 0 33 -4 59 -10 59
-5 0 -10 -12 -10 -26z m-5 -54 c0 -29 -32 -41 -41 -16 -9 24 4 48 23 44 12 -2
18 -12 18 -28z"/>
<path d="M2270 2190 c0 -5 5 -10 10 -10 6 0 10 5 10 10 0 6 -4 10 -10 10 -5 0
-10 -4 -10 -10z"/>
<path d="M1174 2181 c4 -5 0 -12 -6 -14 -10 -4 -10 -8 1 -15 8 -6 12 -19 8
-31 -8 -31 32 -67 47 -42 3 5 -3 11 -14 14 -28 7 -28 57 0 57 11 0 20 5 20 10
0 6 -9 10 -21 10 -11 0 -17 5 -14 10 3 6 -1 10 -10 10 -9 0 -14 -4 -11 -9z"/>
<path d="M1489 2178 c-4 -35 4 -94 15 -100 16 -11 36 -10 36 2 0 6 -7 10 -15
10 -10 0 -15 10 -15 30 0 20 5 30 15 30 8 0 15 5 15 10 0 6 -7 10 -15 10 -8 0
-15 5 -15 10 0 15 -20 12 -21 -2z"/>
<path d="M1729 2178 c-4 -35 4 -94 15 -100 16 -11 36 -10 36 2 0 6 -7 10 -15
10 -10 0 -15 10 -15 30 0 20 5 30 15 30 8 0 15 5 15 10 0 6 -7 10 -15 10 -8 0
-15 5 -15 10 0 15 -20 12 -21 -2z"/>
<path d="M570 2120 c0 -27 5 -50 10 -50 6 0 10 23 10 50 0 28 -4 50 -10 50 -5
0 -10 -22 -10 -50z"/>
<path d="M626 2154 c-9 -8 -16 -24 -16 -34 0 -26 42 -53 66 -43 16 6 14 8 -11
13 -24 4 -30 10 -30 30 0 20 6 26 28 28 15 2 25 8 22 13 -9 14 -42 11 -59 -7z"/>
<path d="M860 2118 c0 -26 5 -48 10 -48 6 0 10 18 10 40 0 29 4 40 15 40 11 0
15 -11 15 -40 0 -51 18 -53 22 -2 4 50 33 52 34 2 0 -19 4 -35 9 -35 12 0 7
77 -6 90 -6 6 -16 5 -28 -2 -10 -7 -22 -9 -26 -5 -4 4 -18 7 -31 7 -22 1 -24
-3 -24 -47z"/>
<path d="M1026 2148 c-9 -12 -16 -28 -16 -35 0 -18 47 -46 65 -39 24 9 17 22
-12 21 -14 0 -28 6 -30 13 -3 8 7 12 31 12 39 0 45 10 20 34 -21 22 -40 20
-58 -6z m49 -8 c4 -6 -5 -10 -20 -10 -15 0 -24 4 -20 10 3 6 12 10 20 10 8 0
17 -4 20 -10z"/>
<path d="M1246 2149 c-16 -23 -12 -47 12 -66 20 -17 27 -16 46 3 22 21 20 61
-3 74 -28 15 -38 13 -55 -11z m49 -29 c0 -15 -6 -26 -16 -28 -19 -3 -31 21
-22 43 9 25 38 13 38 -15z"/>
<path d="M1399 2154 c-11 -14 -10 -18 6 -30 10 -8 22 -14 27 -14 4 0 8 -5 8
-11 0 -7 -10 -9 -25 -7 -29 6 -34 -8 -6 -17 26 -8 51 4 51 26 0 12 -9 21 -25
25 -33 8 -32 24 1 24 14 0 23 4 19 10 -9 15 -41 12 -56 -6z"/>
<path d="M1555 2160 c-4 -6 8 -10 27 -11 l33 -1 -32 -9 c-25 -7 -33 -15 -33
-33 0 -28 26 -42 46 -25 11 9 14 9 14 0 0 -7 5 -9 10 -6 16 10 12 62 -6 79
-17 18 -50 21 -59 6z m53 -52 c-7 -19 -38 -22 -38 -4 0 10 9 16 21 16 12 0 19
-5 17 -12z"/>
<path d="M1659 2163 c-5 -18 0 -83 7 -82 5 1 8 6 6 12 -6 21 9 57 23 57 8 0
15 4 15 9 0 7 -48 11 -51 4z"/>
<path d="M1959 2163 c-5 -18 0 -83 7 -82 5 1 8 6 6 12 -6 21 9 57 23 57 8 0
15 4 15 9 0 7 -48 11 -51 4z"/>
<path d="M2035 2160 c-4 -6 6 -10 22 -10 l28 -1 -32 -14 c-36 -15 -42 -35 -18
-55 12 -10 18 -10 30 0 10 9 15 9 15 1 0 -6 5 -11 10 -11 14 0 12 74 -2 88
-15 15 -45 16 -53 2z m43 -52 c-7 -19 -38 -22 -38 -4 0 10 9 16 21 16 12 0 19
-5 17 -12z"/>
<path d="M2120 2164 c0 -22 24 -94 31 -94 5 0 12 14 16 30 8 43 20 45 27 5 4
-19 10 -35 15 -35 4 0 14 23 23 50 13 39 13 50 3 50 -7 0 -16 -15 -20 -32 l-7
-33 -9 33 c-5 17 -13 32 -18 32 -4 0 -13 -15 -18 -32 l-11 -33 -7 33 c-4 17
-11 32 -16 32 -5 0 -9 -3 -9 -6z"/>
<path d="M2270 2120 c0 -27 5 -50 10 -50 6 0 10 23 10 50 0 28 -4 50 -10 50
-5 0 -10 -22 -10 -50z"/>
<path d="M2319 2163 c-5 -22 0 -83 7 -83 5 1 8 11 6 23 -3 30 12 51 33 43 11
-4 16 -15 14 -33 -2 -16 1 -29 6 -30 9 -2 8 67 -1 76 -5 5 -64 9 -65 4z"/>
<path d="M2431 2157 c-6 -6 -11 -23 -11 -39 0 -33 27 -51 54 -36 16 9 17 8 6
-12 -8 -15 -18 -20 -31 -17 -10 3 -19 1 -19 -4 0 -5 13 -9 29 -9 34 0 41 14
41 79 0 46 -1 48 -29 49 -15 0 -33 -4 -40 -11z m47 -34 c-2 -17 -9 -28 -18
-28 -9 0 -16 11 -18 28 -3 22 1 27 18 27 17 0 21 -5 18 -27z"/>
<path d="M490 1945 c0 -37 4 -65 10 -65 6 0 10 13 10 29 0 29 21 57 33 44 4
-3 7 -21 7 -40 0 -18 5 -33 10 -33 12 0 13 60 1 79 -5 8 -18 12 -30 8 -17 -4
-21 -1 -21 19 0 13 -4 24 -10 24 -6 0 -10 -28 -10 -65z"/>
<path d="M860 1995 c0 -8 5 -15 10 -15 6 0 10 7 10 15 0 8 -4 15 -10 15 -5 0
-10 -7 -10 -15z"/>
<path d="M1100 1945 c0 -37 4 -65 10 -65 6 0 10 28 10 65 0 37 -4 65 -10 65
-6 0 -10 -28 -10 -65z"/>
<path d="M1295 1980 c3 -5 1 -10 -6 -10 -10 0 -10 -3 -1 -12 7 -7 12 -27 12
-45 0 -29 3 -33 28 -32 26 0 27 0 4 10 -18 7 -23 15 -20 36 2 16 8 28 15 28 6
0 15 3 19 8 4 4 -3 7 -15 7 -12 0 -19 4 -16 10 3 6 -1 10 -10 10 -9 0 -13 -4
-10 -10z"/>
<path d="M1628 1979 c-2 -7 -1 -30 2 -53 4 -35 9 -41 30 -43 14 -1 18 0 8 3
-13 4 -18 16 -18 39 0 26 3 33 15 29 8 -4 15 -1 15 5 0 6 -7 11 -15 11 -8 0
-15 5 -15 10 0 14 -17 13 -22 -1z"/>
<path d="M406 1949 c-22 -32 -6 -63 33 -67 17 -2 31 1 31 6 0 6 -8 8 -18 5
-23 -6 -44 19 -36 41 3 9 17 16 30 16 13 0 24 5 24 10 0 19 -49 10 -64 -11z"/>
<path d="M606 1954 c-19 -18 -20 -28 -6 -55 11 -19 70 -28 70 -11 0 4 -12 8
-27 7 -14 0 -28 6 -30 13 -3 8 7 12 31 12 37 0 47 15 24 38 -17 17 -44 15 -62
-4z m54 -15 c0 -5 -12 -9 -26 -9 -22 0 -24 2 -14 14 12 15 40 11 40 -5z"/>
<path d="M700 1923 c0 -23 5 -43 10 -43 6 0 10 16 10 36 0 28 3 35 18 32 12
-2 17 -13 17 -36 0 -17 5 -32 11 -32 12 0 13 58 1 77 -4 6 -21 11 -37 11 -29
-1 -30 -3 -30 -45z"/>
<path d="M780 1960 c0 -5 7 -10 15 -10 10 0 15 -11 15 -35 0 -19 5 -35 10 -35
14 0 12 64 -2 78 -15 15 -38 16 -38 2z"/>
<path d="M860 1925 c0 -25 5 -45 10 -45 6 0 10 20 10 45 0 25 -4 45 -10 45 -5
0 -10 -20 -10 -45z"/>
<path d="M921 1956 c-7 -8 -11 -27 -9 -43 2 -23 8 -29 36 -31 17 -2 32 1 32 6
0 6 -8 8 -18 5 -23 -6 -44 19 -36 41 3 9 17 16 30 16 13 0 24 5 24 10 0 15
-46 12 -59 -4z"/>
<path d="M1000 1959 c0 -6 8 -9 19 -6 10 2 25 1 32 -4 10 -6 6 -9 -13 -9 -29
0 -52 -28 -39 -48 4 -6 23 -11 42 -10 l35 1 -6 41 c-5 38 -8 41 -37 44 -21 2
-33 -1 -33 -9z m47 -56 c-9 -9 -20 -12 -28 -8 -9 6 -8 11 6 21 23 17 42 6 22
-13z"/>
<path d="M1207 1963 c-14 -14 -6 -34 18 -43 14 -5 25 -15 25 -21 0 -7 -10 -9
-25 -7 -14 3 -25 1 -25 -4 0 -5 15 -8 33 -6 24 2 32 8 32 23 0 13 -8 21 -23
23 -13 2 -21 9 -19 15 2 7 14 11 27 9 14 -2 20 0 16 7 -8 12 -49 15 -59 4z"/>
<path d="M1360 1923 c0 -23 5 -43 10 -43 6 0 10 14 10 31 0 22 5 32 20 36 30
8 24 22 -10 21 -29 -1 -30 -3 -30 -45z"/>
<path d="M1430 1941 c0 -49 9 -61 46 -61 34 0 34 1 34 45 0 54 -18 60 -22 8
-2 -26 -8 -38 -18 -38 -10 0 -16 12 -18 38 -4 44 -22 50 -22 8z"/>
<path d="M1551 1956 c-7 -8 -11 -27 -9 -43 2 -23 8 -29 36 -31 17 -2 32 1 32
6 0 6 -8 8 -18 5 -23 -6 -44 19 -36 41 3 9 17 16 30 16 13 0 24 5 24 10 0 15
-46 12 -59 -4z"/>
<path d="M1702 1928 c3 -42 4 -43 41 -45 l37 -1 0 44 c0 24 -4 44 -10 44 -5 0
-10 -11 -10 -24 0 -35 -10 -56 -26 -56 -10 0 -14 12 -14 40 0 22 -5 40 -11 40
-6 0 -9 -17 -7 -42z"/>
<path d="M1805 1923 c0 -29 4 -43 14 -43 8 0 11 6 7 16 -9 23 2 54 20 54 8 0
14 4 14 8 0 5 -12 9 -27 9 -26 0 -28 -3 -28 -44z"/>
<path d="M1881 1956 c-7 -8 -11 -27 -9 -43 3 -24 8 -28 41 -31 22 -2 37 1 37
8 0 6 -10 8 -23 5 -15 -4 -28 -1 -36 9 -12 14 -9 16 23 16 37 0 47 15 24 38
-16 16 -43 15 -57 -2z m49 -17 c0 -5 -9 -9 -20 -9 -22 0 -27 16 -7 23 15 5 27
-1 27 -14z"/>
<path d="M1977 1963 c-14 -14 -6 -34 18 -45 14 -6 25 -16 25 -21 0 -5 -11 -7
-25 -5 -14 3 -25 1 -25 -4 0 -5 15 -8 32 -6 42 4 51 34 13 44 -31 8 -28 30 5
26 14 -2 20 0 16 7 -8 12 -49 15 -59 4z"/>
<path d="M660 1466 c0 -43 20 -80 66 -122 52 -48 55 -72 19 -144 -14 -27 -25
-58 -25 -68 0 -17 -10 -20 -68 -24 -37 -3 -81 -12 -97 -21 -117 -60 -168 -214
-169 -507 l-1 -165 33 -67 c76 -155 253 -232 411 -178 146 49 224 147 246 306
8 64 -11 316 -31 390 -45 172 -118 244 -251 244 -52 0 -54 10 -17 83 42 81 34
120 -37 184 -33 30 -39 42 -39 74 0 32 -3 39 -20 39 -15 0 -20 -7 -20 -24z
m194 -397 c100 -25 152 -123 181 -340 l6 -45 -68 -22 c-90 -29 -150 -41 -195
-42 -36 0 -38 2 -38 33 0 21 7 36 20 45 18 11 20 23 20 142 0 119 -2 131 -20
142 -15 10 -20 24 -20 55 0 43 0 43 36 43 19 0 55 -5 78 -11z m-154 -43 c0
-21 -6 -36 -15 -40 -12 -4 -15 -29 -15 -139 0 -107 3 -137 15 -147 8 -7 15
-25 15 -39 l0 -27 -62 7 c-69 9 -194 44 -203 58 -9 15 15 161 36 217 11 29 29
65 41 79 28 36 92 65 146 65 41 0 42 -1 42 -34z m48 -183 c-3 -103 -5 -118
-20 -121 -16 -3 -18 8 -18 117 0 115 1 121 20 121 20 0 21 -5 18 -117z m-218
-230 c142 -40 341 -31 466 22 20 8 38 15 40 15 9 0 3 -208 -6 -242 -26 -91
-120 -184 -213 -209 -115 -31 -223 -3 -308 81 -74 73 -94 129 -94 268 -1 88 1
102 15 96 8 -4 53 -18 100 -31z"/>
<path d="M432 1204 c-64 -32 -116 -91 -138 -157 -14 -41 -14 -51 -3 -58 10 -6
17 -2 23 14 31 81 45 103 84 138 24 21 60 41 79 45 23 4 33 11 31 22 -5 25
-20 24 -76 -4z"/>
<path d="M523 1157 c-86 -32 -159 -116 -178 -205 -6 -29 -4 -33 10 -30 11 2
23 20 31 48 22 76 111 160 169 160 8 0 15 9 15 20 0 23 -3 23 -47 7z"/>
</g>
</svg>
